<svg id="Layer_1" data-name="Layer 1" xmlns="http://www.w3.org/2000/svg" viewBox="0 0 1418.17 347.25"><defs><style>.cls-1{fill:#f50;}.cls-2{fill:#fff;}</style></defs><title>pinnacle-logo</title><rect class="cls-1" x="683.45" y="-404.92" width="51.13" height="1417.32" transform="translate(403.16 1028.08) rotate(-89.85)"/><path class="cls-2" d="M1112.93-.85l54.88.14-.46,176.56,88.7.23-.14,52.37-143.58-.37Z" transform="translate(-0.29 16.11)"/><path class="cls-2" d="M1270.37-.44l148.09.38-.13,50.8-93.53-.24-.1,37.63,93.53.24-.13,50.8-93.53-.24-.1,38.89,93.53.24-.13,50.8-148.09-.38Z" transform="translate(-0.29 16.11)"/><path class="cls-2" d="M1.15-3.72l86.94.22c53.63.14,87.71,38.17,87.59,84-.12,46.1-34.09,84.9-88.34,84.76l-31.74-.08-.16,60.21L.56,225.21Zm54.75,50-.18,68.05,29.86.08c19.76.05,34.53-13.4,34.58-33.78S105.52,46.41,85.76,46.36Z" transform="translate(-0.29 16.11)"/><path class="cls-2" d="M190-3.23l55.19.14-.59,228.93-55.19-.14Z" transform="translate(-0.29 16.11)"/><path class="cls-2" d="M261.52-3l58.33.15,96.5,137.27.35-137L471-2.51l-.59,228.93-54.25-.14L315.87,79.72,315.49,226l-54.57-.14Z" transform="translate(-0.29 16.11)"/><path class="cls-2" d="M849.5,227.4l63.88.16L798.31-16.1h-3.9L678.08,227l63.88.16,11.55-25,84.58.22Zm-74.18-72.54L796,110l20.48,45Z" transform="translate(-0.29 16.11)"/><path class="cls-2" d="M1051,139.48c-9.46,21.62-28.32,37.25-55.6,37.18-36.38-.09-61.08-28.7-61-63.5.09-35.44,25.57-63.91,61.94-63.82,25.09.06,43.24,13,53.54,33.38l48.06-30.29c-20.3-33.92-57.56-56.6-101.78-56.71C928.73-4.46,878.74,46.21,878.57,113c0,.2,0,.39,0,.59l44.29,93.77c19.24,14.73,44,23.46,72.68,23.54,48.92.13,86.31-26.43,105.85-64.33Z" transform="translate(-0.29 16.11)"/><polygon class="cls-2" points="661.27 237.75 696.75 163.61 697.14 14.19 642.89 14.05 642.53 151.07 546.03 13.8 487.7 13.65 487.11 242.58 541.68 242.72 542.05 96.42 642.29 242.98 658.75 243.02 661.27 237.75"/></svg>